<?xml version="1.0" encoding="UTF-8" standalone="no"?>
<!-- Created with Inkscape (http://www.inkscape.org/) -->

<svg
   height="64"
   width="64"
   version="1.1"
   id="svg4996"
   sodipodi:docname="Bitcoin.svg"
   inkscape:version="1.2.1 (9c6d41e410, 2022-07-14, custom)"
   xmlns:inkscape="http://www.inkscape.org/namespaces/inkscape"
   xmlns:sodipodi="http://sodipodi.sourceforge.net/DTD/sodipodi-0.dtd"
   xmlns="http://www.w3.org/2000/svg"
   xmlns:svg="http://www.w3.org/2000/svg">
  <defs
     id="defs5000" />
  <sodipodi:namedview
     id="namedview4998"
     pagecolor="#ffffff"
     bordercolor="#000000"
     borderopacity="0.25"
     inkscape:showpageshadow="2"
     inkscape:pageopacity="0.0"
     inkscape:pagecheckerboard="0"
     inkscape:deskcolor="#d1d1d1"
     showgrid="false"
     inkscape:zoom="12.609375"
     inkscape:cx="31.960347"
     inkscape:cy="32.356877"
     inkscape:window-width="1343"
     inkscape:window-height="1044"
     inkscape:window-x="817"
     inkscape:window-y="96"
     inkscape:window-maximized="0"
     inkscape:current-layer="g4994" />
  <g
     transform="translate(0.00630876,-0.00301984)"
     id="g4994">
    <path
       fill="#FFF"
       d="M 63.133064,26.016166 C 64.116798,19.440439 59.110104,15.905485 52.26412,13.547303 L 54.484857,4.6396494 49.06274,3.2883666 46.900687,11.961283 c -1.42541,-0.355193 -2.889428,-0.690311 -4.34418,-1.022341 L 44.734002,2.208885 39.314973,0.85760215 37.092693,9.7621676 C 35.91283,9.4934554 34.754588,9.2278321 33.63032,8.9483093 l 0.0062,-0.027797 -7.477611,-1.867086 -1.442398,5.7912117 c 0,0 4.022961,0.921961 3.938023,0.9791 2.196027,0.548235 2.592919,2.001443 2.526513,3.153508 l -2.529601,10.147746 c 0.151343,0.0386 0.347472,0.09421 0.563678,0.180685 -0.180686,-0.04479 -0.373727,-0.09421 -0.572944,-0.142078 l -3.545766,14.215493 c -0.268712,0.667146 -0.949758,1.667868 -2.484814,1.287964 0.05405,0.07876 -3.941113,-0.983733 -3.941113,-0.983733 l -2.691755,6.206633 7.056012,1.758984 c 1.312674,0.32894 2.599095,0.673325 3.865439,0.997633 l -2.2439,9.009579 5.41594,1.351283 2.222281,-8.913831 c 1.479461,0.401523 2.915681,0.772161 4.321014,1.121177 l -2.214559,8.872135 5.422119,1.351283 2.2439,-8.992593 c 9.245862,1.749719 16.198403,1.043964 19.124894,-7.318546 2.358182,-6.733247 -0.117371,-10.617219 -4.981985,-13.149908 3.542676,-0.816947 6.211266,-3.14733 6.923199,-7.960985 z M 50.744507,43.388254 c -1.675591,6.733248 -13.012464,3.093278 -16.687953,2.180583 l 2.977454,-11.936071 c 3.675489,0.917329 15.461761,2.733452 13.710499,9.755488 z m 1.677134,-17.469381 c -1.52888,6.124786 -10.964692,3.012975 -14.02554,2.25008 L 41.095578,17.34325 c 3.060848,0.762894 12.91826,2.186761 11.326063,8.575623 z"
       id="path4992"
       style="fill:#ff6000;fill-opacity:0.470588;stroke-width:1.54432" />
  </g>
</svg>
